<svg xmlns="http://www.w3.org/2000/svg" fill-rule="evenodd" stroke-linejoin="round" stroke-miterlimit="2" clip-rule="evenodd" viewBox="0 0 48 48" id="candles-stick-chart"><path d="M9 41h2v3a1 1 0 0 0 2 0v-3h2v1a1 1 0 0 0 2 0v-1h2v3a1 1 0 0 0 2 0v-3h2v1a1 1 0 0 0 2 0v-1h2v3a1 1 0 0 0 2 0v-3h2v1a1 1 0 0 0 2 0v-1h2v3a1 1 0 0 0 2 0v-3h2v1a1 1 0 0 0 2 0v-1h2v3a1 1 0 0 0 2 0v-4a1 1 0 0 0-1-1H9V4a1 1 0 0 0-1-1H4a1 1 0 0 0 0 2h3v2H6a1 1 0 0 0 0 2h1v2H4a1 1 0 0 0 0 2h3v2H6a1 1 0 0 0 0 2h1v2H4a1 1 0 0 0 0 2h3v2H6a1 1 0 0 0 0 2h1v2H4a1 1 0 0 0 0 2h3v2H6a1 1 0 0 0 0 2h1v2H4a1 1 0 0 0 0 2h3v2H6a1 1 0 0 0 0 2h1v1a1 1 0 0 0 2 0v-1Zm6-18h-1a1 1 0 0 0-1 1v8a1 1 0 0 0 1 1h1v1a1 1 0 0 0 2 0v-1h1a1 1 0 0 0 1-1v-8a1 1 0 0 0-1-1h-1v-1a1 1 0 0 0-2 0v1Zm2 2v6h-2v-6h2Zm6-11h-1a1 1 0 0 0-1 1v12a1 1 0 0 0 1 1h1v1a1 1 0 0 0 2 0v-1h1a1 1 0 0 0 1-1V15a1 1 0 0 0-1-1h-1v-1a1 1 0 0 0-2 0v1Zm0 2h2v10h-2V16Zm17-2h-1a1 1 0 0 0-1 1v8a1 1 0 0 0 1 1h1v1a1 1 0 0 0 2 0v-1h1a1 1 0 0 0 1-1v-8a1 1 0 0 0-1-1h-1v-1a1 1 0 0 0-2 0v1Zm-9-6h-1a1 1 0 0 0-1 1v10a1 1 0 0 0 1 1h1v1a1 1 0 0 0 2 0v-1h1a1 1 0 0 0 1-1V9a1 1 0 0 0-1-1h-1V7a1 1 0 0 0-2 0v1Zm11 8v6h-2v-6h2Zm-11-6h2v8h-2v-8Z"></path></svg>