<svg xmlns="http://www.w3.org/2000/svg" viewBox="0 0 52 52" id="statistics"><path d="M.613.94c.201 4.218.42 8.447.274 12.67-.13 3.807-.93 7.58-.962 11.38-.034 4.063 1.312 7.966 1.387 12.025.08 4.232-.7 8.31-.158 12.55.066.513.339 1.1.918 1.206 7.624 1.395 15.852.729 23.586.866 3.969.07 7.983.337 11.948.135 4.56-.232 8.432-1.086 12.942.422 1.53.511 2.185-1.902.664-2.41-6.87-2.299-14.434-.45-21.556-.576l-12.996-.231c-2.257-.04-11.657 1.079-13.233-1.185-.53-.763.04-4.505.092-5.376.106-1.796.325-3.598.293-5.401-.076-4.346-1.52-8.524-1.374-12.881C2.7 16.309 3.49 8.824 3.113.94 3.037-.66.536-.67.613.94z"></path><path d="M45.862 48.821c1.472-3.932.393-7.38.176-11.38-.279-5.151.025-10.366.163-15.517.144-5.353 3.02-14.435-4.668-14.548-1.764-.026-4.813.296-6.005 1.738-.538.65-.6 2.785-.662 3.273-.34 2.629-.733 5.26-1.014 7.896-.502 4.71.486 9.236.368 13.95-.127 5.087-.58 10.186-.875 15.265-.093 1.608 2.407 1.602 2.5 0 .381-6.577 1.365-13.451.765-20.022-.26-2.845-.645-5.486-.358-8.349.272-2.71.017-9.206 2.648-10.828 5.276-3.254 4.963 5.09 4.903 7.745-.072 3.234-.189 6.466-.253 9.699-.07 3.452-.219 6.961.02 10.408.244 3.514 1.192 6.505-.118 10.006-.565 1.509 1.85 2.16 2.41.664zM22.998 48.257c-.196-4.806-.36-9.598-.321-14.41.022-2.758.061-5.518.112-8.276.014-.789-.291-2.682.114-3.366.617-1.04 1.657-.867 3.329-.61 3.094.475 3.041 1.35 2.783 4.251-.206 2.327-.277 4.651-.336 6.986-.145 5.751-.283 11.503-.424 17.254-.04 1.61 2.46 1.609 2.5 0 .198-8.062.092-16.201.76-24.24.478-5.745.362-6.484-5.283-6.752-5.19-.246-5.75.37-5.93 5.585-.273 7.86-.124 15.723.196 23.578.066 1.603 2.566 1.611 2.5 0zM16.2 49.595c1.608 0 1.61-2.5 0-2.5s-1.612 2.5 0 2.5z"></path><path d="M17.176 48.907c.908-1.86.683-3.125.434-5.132-.381-3.066.085-6.18.034-9.262-.09-5.444-.107-6.955-5.862-6.957-4.536-.002-6.121.732-6.31 5.383-.233 5.774-1.388 11.66.478 17.27.505 1.519 2.92.868 2.41-.665-1.157-3.482-1.039-6.903-.746-10.497.111-1.366.254-2.728.317-4.098.033-.884.049-1.768.046-2.652-.241-1.663.353-2.365 1.781-2.106a13.167 13.167 0 0 1 2.757-.135c2.071.238 2.934 1.22 2.588 2.942.366 1.322.062 3.205.029 4.544-.034 1.357-.22 2.73-.2 4.086.028 1.82.877 4.394.085 6.017-.703 1.44 1.452 2.709 2.159 1.262z"></path></svg>